   <svg width="31" height="32" viewBox="0 0 31 32" fill="none" xmlns="http://www.w3.org/2000/svg">
        <path d="M29.2238 16.4146C29.095 16.1511 29.095 15.849 29.2238 15.5857L30.4173 13.1441C31.0818 11.7847 30.5553 10.1644 29.2187 9.45519L26.8181 8.18144C26.5591 8.04407 26.3815 7.79957 26.3308 7.51089L25.8613 4.83409C25.5999 3.34372 24.2213 2.34223 22.7233 2.55416L20.0325 2.93479C19.7421 2.97579 19.4549 2.88241 19.2442 2.6786L17.291 0.789113C16.2035 -0.263006 14.4998 -0.263069 13.4123 0.789113L11.459 2.67879C11.2483 2.88266 10.9611 2.97585 10.6707 2.93498L7.97991 2.55435C6.48149 2.34229 5.10337 3.34391 4.84193 4.83428L4.37244 7.51095C4.32175 7.7997 4.14419 8.04413 3.88525 8.18157L1.48464 9.45531C0.148023 10.1644 -0.378474 11.7849 0.286022 13.1443L1.47945 15.5858C1.6082 15.8492 1.6082 16.1513 1.47945 16.4147L0.28596 18.8562C-0.378537 20.2156 0.14796 21.8359 1.48458 22.5451L3.88519 23.8189C4.14419 23.9562 4.32175 24.2007 4.37244 24.4894L4.84193 27.1662C5.07993 28.5229 6.2433 29.4744 7.58035 29.4743C7.71204 29.4743 7.84566 29.4651 7.97998 29.4461L10.6708 29.0654C10.961 29.0243 11.2483 29.1178 11.4591 29.3216L13.4123 31.2111C13.9561 31.7372 14.6538 32.0002 15.3516 32.0002C16.0493 32.0001 16.7474 31.7371 17.291 31.2111L19.2442 29.3216C19.455 29.1178 19.7422 29.0247 20.0325 29.0654L22.7233 29.4461C24.2219 29.6581 25.5999 28.6565 25.8613 27.1661L26.3309 24.4895C26.3816 24.2007 26.5591 23.9563 26.8181 23.8189L29.2187 22.5451C30.5553 21.836 31.0818 20.2156 30.4173 18.8561L29.2238 16.4146ZM28.3536 20.9147L25.953 22.1884C25.1876 22.5946 24.6627 23.317 24.513 24.1705L24.0435 26.8472C23.9551 27.3515 23.4889 27.6901 22.9818 27.6186L20.291 27.238C19.4329 27.1164 18.5838 27.3926 17.961 27.995L16.0077 29.8844C15.6399 30.2403 15.0634 30.2403 14.6954 29.8844L12.7423 27.995C12.2159 27.4858 11.5278 27.2098 10.8094 27.2098C10.6778 27.2098 10.5451 27.2191 10.4122 27.2379L7.72142 27.6185C7.21479 27.6901 6.74823 27.3514 6.65973 26.8471L6.19018 24.1704C6.04043 23.3169 5.51555 22.5944 4.75012 22.1884L2.34951 20.9146C1.89726 20.6747 1.71914 20.1265 1.94395 19.6666L3.13744 17.225C3.51794 16.4465 3.51794 15.5537 3.13744 14.7752L1.94395 12.3336C1.71914 11.8737 1.89726 11.3255 2.34951 11.0856L4.75012 9.81181C5.51549 9.40563 6.04043 8.68325 6.19011 7.82976L6.65961 5.15302C6.74811 4.64878 7.21423 4.31003 7.72129 4.38165L10.4121 4.76228C11.2699 4.88371 12.1193 4.60765 12.7421 4.00522L14.6954 2.11573C15.0632 1.75986 15.6397 1.75986 16.0077 2.11573L17.9609 4.00522C18.5837 4.60772 19.433 4.88371 20.2909 4.76228L22.9817 4.38165C23.4884 4.30997 23.9549 4.64878 24.0434 5.15302L24.5129 7.82982C24.6626 8.68332 25.1875 9.40575 25.9529 9.81181L28.3535 11.0856C28.8058 11.3255 28.9839 11.8737 28.7591 12.3336L27.5656 14.7751C27.1851 15.5535 27.1851 16.4465 27.5656 17.225L28.7591 19.6664C28.984 20.1265 28.8059 20.6747 28.3536 20.9147Z" fill="white"/>
        <path d="M22.0947 9.25465C21.7344 8.89428 21.15 8.89428 20.7896 9.25465L8.60915 21.4352C8.24877 21.7956 8.24877 22.3799 8.60915 22.7403C8.78933 22.9204 9.02552 23.0106 9.26164 23.0106C9.49777 23.0106 9.73402 22.9205 9.91414 22.7403L22.0946 10.5598C22.4551 10.1993 22.4551 9.61509 22.0947 9.25465Z" fill="white"/>
        <path d="M11.66 7.69531C9.7943 7.69531 8.27637 9.21324 8.27637 11.079C8.27637 12.9447 9.7943 14.4626 11.66 14.4626C13.5258 14.4626 15.0437 12.9447 15.0437 11.079C15.0437 9.21324 13.5258 7.69531 11.66 7.69531ZM11.66 12.617C10.812 12.617 10.122 11.927 10.122 11.0789C10.122 10.2309 10.812 9.54093 11.66 9.54093C12.5081 9.54093 13.1981 10.2309 13.1981 11.0789C13.198 11.927 12.5081 12.617 11.66 12.617Z" fill="white"/>
        <path d="M19.0428 17.5391C17.1771 17.5391 15.6592 19.057 15.6592 20.9227C15.6592 22.7885 17.1771 24.3064 19.0428 24.3064C20.9086 24.3064 22.4265 22.7885 22.4265 20.9227C22.4265 19.057 20.9086 17.5391 19.0428 17.5391ZM19.0428 22.4607C18.1948 22.4607 17.5048 21.7708 17.5048 20.9227C17.5048 20.0747 18.1947 19.3847 19.0428 19.3847C19.8909 19.3847 20.5808 20.0747 20.5808 20.9227C20.5808 21.7708 19.8909 22.4607 19.0428 22.4607Z" fill="white"/>
    </svg>